<?xml version="1.0" encoding="utf-8"?>
<!-- Generator: Adobe Illustrator 26.0.1, SVG Export Plug-In . SVG Version: 6.00 Build 0)  -->
<svg version="1.1" id="logos" xmlns="http://www.w3.org/2000/svg" xmlns:xlink="http://www.w3.org/1999/xlink" x="0px" y="0px"
	 viewBox="0 0 646 352.4" style="enable-background:new 0 0 646 352.4;" xml:space="preserve">
<style type="text/css">
	.st0{fill:#E2FF00;}
</style>
<path class="st0" d="M469.8,0c-87.1,0-159.7,63.6-173.7,146.8H176.2c-16.2,0-29.4,13.1-29.4,29.3c0,16.2,13.1,29.4,29.3,29.4
	c0,0,0,0,0.1,0h113.7c-16.2,62.8-80.3,100.6-143.1,84.4C95,276.5,58.7,229.7,58.7,176.2c0-16.2-13.1-29.4-29.4-29.4
	C13.1,146.8,0,160,0,176.2c0,0,0,0,0,0c0,97.1,79,176.2,176.2,176.2c87.1,0,159.7-63.6,173.7-146.8h119.9
	c16.2,0,29.4-13.1,29.4-29.4c0-16.2-13.1-29.4-29.4-29.4H356.1C372.3,84,436.4,46.3,499.2,62.5c51.8,13.4,88,60.1,88.1,113.7
	c0,16.2,13.2,29.4,29.4,29.4s29.4-13.2,29.4-29.4l0,0C646,79,567,0,469.8,0"/>
</svg>
